<svg width="389" height="419" viewBox="0 0 389 419" fill="none" xmlns="http://www.w3.org/2000/svg">
<g clip-path="url(#clip0_2_1323)">
<path d="M0.782131 344.347C4.17795 342.367 5.61957 337.115 9.30371 335.745C13.084 334.337 17.2807 337.115 20.7406 334.07C22.2462 332.738 23.3675 330.531 25.1936 329.731C26.7954 329.046 28.4612 329.807 29.999 330.378C31.3124 330.873 32.6259 331.33 33.9394 331.825C39.2253 333.766 44.4792 335.669 49.7652 337.61C55.7559 339.779 61.7146 341.987 67.7053 344.156C68.282 344.385 68.5383 343.281 67.9616 343.052C57.0053 339.056 46.081 335.06 35.1247 331.063C32.5618 330.15 29.9029 328.742 27.2439 328.361C25.3858 328.095 23.9121 328.97 22.5986 330.416C20.7726 332.434 19.395 334.299 16.7361 334.451C14.5256 334.603 12.3471 333.918 10.1366 334.337C5.58753 335.174 4.17794 341.073 0.333624 343.319C-0.243024 343.699 0.237519 344.689 0.782131 344.347Z" fill="#E8E8E8"/>
<path d="M58.3508 339.551C60.6254 340.236 62.4194 337.534 64.4697 336.734C67.2248 335.631 70.1721 336.087 72.6709 337.8C73.2156 338.181 73.6961 337.191 73.1515 336.81C71.0371 335.326 68.6344 334.717 66.1997 335.098C65.1425 335.25 64.1494 335.592 63.1883 336.087C61.8107 336.81 60.2089 338.904 58.6071 338.447C57.9985 338.257 57.7422 339.361 58.3508 339.551Z" fill="#E8E8E8"/>
<path d="M83.0505 336.696C80.9041 334.603 78.8538 332.357 76.9316 329.959C76.0346 328.856 75.1697 327.676 74.3367 326.496C73.8562 325.811 73.3756 325.126 72.9271 324.441C72.6068 323.946 72.2864 323.451 71.9981 322.956C71.4855 322.347 71.4855 321.586 72.0301 320.749C72.4146 320.939 73.0232 320.482 72.7029 319.95C70.7487 316.829 69.3071 313.403 68.378 309.673C68.1858 309.902 67.9936 310.13 67.8014 310.358C68.8586 310.701 69.6274 311.348 70.2041 312.414C70.5244 313.023 71.3574 312.49 71.037 311.843C66.2636 302.023 62.3553 291.671 59.4079 280.899C59.1517 281.09 58.8633 281.28 58.607 281.47C72.0301 297.151 78.117 318.96 89.4257 336.506C89.8101 337.077 90.643 336.506 90.2586 335.935C78.9179 318.313 72.767 296.428 59.2798 280.671C58.9594 280.29 58.3187 280.671 58.4789 281.242C61.4582 292.127 65.3666 302.556 70.2041 312.452C70.4924 312.261 70.7487 312.071 71.037 311.881C70.3002 310.549 69.3391 309.673 68.0577 309.293C67.7053 309.178 67.3529 309.559 67.481 309.978C68.4421 313.784 69.9157 317.323 71.902 320.52C72.1262 320.254 72.3505 319.988 72.5747 319.721C71.6777 319.226 70.6846 319.721 70.4604 320.977C70.172 322.766 71.9981 324.745 72.831 326.001C75.6822 330.226 78.9179 334.07 82.4418 337.495C82.8583 337.952 83.5311 337.153 83.0505 336.696Z" fill="#E8E8E8"/>
<path d="M79.6868 312.908C73.7921 302.442 69.0188 291.214 65.4948 279.339C65.3987 279.567 65.2706 279.796 65.1745 280.024C66.2637 279.719 67.1927 280.214 67.8014 281.356C68.1218 282.003 68.8906 281.432 68.6343 280.785C63.6688 268.035 58.6071 254.752 58.9595 240.403C58.6711 240.517 58.3508 240.593 58.0625 240.707C66.6161 261.641 74.7532 282.84 82.4419 304.231C82.6661 304.84 83.4991 304.383 83.3068 303.774C82.0254 299.207 80.776 294.601 79.4945 290.034C78.8859 287.788 78.2451 285.581 77.6365 283.335C77.22 281.851 76.323 278.616 78.117 277.816C77.9248 277.74 77.7646 277.626 77.5724 277.55C79.879 282.917 82.1535 288.283 84.4601 293.65C84.7484 294.297 85.5814 293.726 85.2931 293.079C82.7943 287.255 81.641 280.823 81.8652 274.277C81.5449 274.315 81.2245 274.391 80.9362 274.429C87.5997 294.106 95.3203 313.289 104.002 331.825C104.29 332.472 105.123 331.901 104.835 331.254C96.1853 312.794 88.4967 293.726 81.8652 274.125C81.673 273.554 80.9362 273.592 80.9362 274.277C80.7119 281.014 81.9293 287.598 84.4922 293.65C84.7805 293.459 85.0368 293.269 85.3251 293.079C83.0185 287.712 80.744 282.346 78.4374 276.979C78.3413 276.789 78.085 276.637 77.8927 276.713C74.6891 278.121 76.7394 283.564 77.4442 286.114C79.1101 292.089 80.7439 298.103 82.4098 304.078C82.6981 303.926 82.9865 303.774 83.2748 303.622C75.5861 282.231 67.449 261.032 58.8954 240.098C58.6711 239.566 57.9984 239.87 57.9984 240.403C57.614 254.942 62.7717 268.454 67.8014 281.356C68.0897 281.166 68.346 280.975 68.6343 280.785C67.8014 279.225 66.4559 278.54 64.9182 278.92C64.6619 278.996 64.5017 279.339 64.5978 279.605C68.1538 291.556 72.9592 302.898 78.8859 313.441C79.2062 314.088 80.0392 313.517 79.6868 312.908Z" fill="#E8E8E8"/>
<path d="M16.3836 386.48C27.468 380.123 39.1612 373.653 51.8154 375.176C57.8061 375.899 63.6047 377.954 69.5633 378.867C72.5747 379.324 75.6182 379.514 78.6295 379.096C81.4487 378.677 84.1077 377.459 86.8628 376.736C90.4188 375.785 93.6544 376.774 97.0823 377.916C99.9014 378.829 102.689 379.591 105.604 378.791C106.213 378.639 105.956 377.535 105.348 377.688C99.517 379.324 94.0389 374.338 88.1442 375.328C85.229 375.823 82.5059 377.193 79.6227 377.802C76.5792 378.411 73.4717 378.335 70.3963 377.878C64.3415 377.041 58.4469 374.909 52.36 374.11C46.3693 373.311 40.4426 374.224 34.7082 376.203C28.1728 378.487 21.9899 381.988 15.9031 385.49C15.3264 385.794 15.839 386.784 16.3836 386.48Z" fill="#E8E8E8"/>
<path d="M81.4167 418.032C85.1649 416.129 88.849 414.035 92.405 411.676C94.2631 410.42 96.0892 409.126 97.9152 407.755C99.5491 406.499 101.183 404.711 102.977 403.797C104.995 402.808 108.039 404.672 110.057 405.396C112.203 406.195 114.35 406.956 116.464 407.755C120.853 409.354 125.242 410.952 129.599 412.551C130.175 412.779 130.432 411.676 129.855 411.447C125.178 409.735 120.469 408.022 115.791 406.309C113.549 405.472 111.306 404.672 109.064 403.835C107.334 403.188 105.155 401.856 103.329 402.389C101.631 402.884 100.094 404.634 98.652 405.776C96.794 407.223 94.8718 408.631 92.9496 409.963C89.0733 412.589 85.0688 414.949 80.9361 417.004C80.3595 417.309 80.8721 418.298 81.4167 418.032Z" fill="#E8E8E8"/>
<path d="M121.27 419.212C123.704 417.765 126.139 416.281 128.574 414.835C130.816 413.465 133.219 411.638 135.782 411.371C138.377 411.067 140.395 413.084 142.638 414.264C144.528 415.253 146.578 415.824 148.628 415.977C153.434 416.281 157.919 413.427 162.692 413.731C166.504 413.997 170.349 417.727 174.097 415.368C174.641 415.025 174.161 414.036 173.616 414.378C171.278 415.862 168.747 414.416 166.44 413.541C164.454 412.78 162.532 412.437 160.45 412.703C155.516 413.312 150.999 415.786 145.937 414.378C141.741 413.236 138.537 409.088 134.02 410.648C131.938 411.371 129.983 412.741 128.061 413.883C125.626 415.33 123.192 416.814 120.757 418.26C120.244 418.565 120.725 419.554 121.27 419.212Z" fill="#E8E8E8"/>
<path d="M139.978 410.953C137.992 408.897 136.198 406.614 134.725 403.987C134.052 402.808 133.443 401.552 132.867 400.296C132.578 399.649 132.322 399.001 132.098 398.354C131.905 397.822 131.713 397.327 131.553 396.794C131.265 396.223 131.393 395.69 131.937 395.195C132.226 395.043 132.514 394.891 132.802 394.739C129.278 388.573 127.068 381.57 126.331 374.186C126.043 374.338 125.787 374.452 125.498 374.605C126.075 375.48 126.652 376.355 127.26 377.269C127.613 377.802 128.285 377.117 128.029 376.584C122.455 364.747 119.475 351.426 119.411 337.876C119.123 338.028 118.867 338.143 118.578 338.295C120.757 340.388 122.423 342.976 123.448 346.059C123.736 345.907 124.025 345.755 124.313 345.602C121.814 339.322 121.302 332.243 122.775 325.545C122.455 325.545 122.166 325.545 121.846 325.545C128.413 347.886 134.949 370.19 141.516 392.531C141.708 393.216 142.637 392.912 142.445 392.227C139.146 380.77 137.512 368.743 137.608 356.602C137.32 356.754 137.063 356.868 136.775 357.021C138.729 359.114 139.946 361.74 140.395 364.823C140.491 365.47 141.356 365.318 141.324 364.671C141.228 362.349 141.1 359.989 141.004 357.668C140.747 357.82 140.523 358.01 140.267 358.162C141.965 359.456 142.285 362.882 142.83 365.013C143.406 367.297 143.983 369.581 144.592 371.902C145.777 376.622 146.994 381.303 148.18 386.023C150.582 395.424 152.985 404.863 155.388 414.264C155.58 414.949 156.509 414.682 156.317 413.959C153.722 403.835 151.159 393.673 148.564 383.549C147.315 378.601 146.033 373.653 144.784 368.705C144.143 366.155 143.502 363.643 142.862 361.093C142.445 359.533 141.965 358.124 140.779 357.211C140.491 356.983 140.043 357.287 140.043 357.706C140.139 360.027 140.267 362.387 140.363 364.709C140.683 364.671 141.004 364.595 141.292 364.557C140.843 361.283 139.498 358.429 137.416 356.221C137.095 355.879 136.615 356.107 136.583 356.64C136.487 368.857 138.12 380.999 141.452 392.569C141.773 392.455 142.061 392.379 142.381 392.265C135.814 369.923 129.278 347.62 122.711 325.278C122.551 324.783 121.91 324.707 121.782 325.278C120.244 332.319 120.821 339.665 123.416 346.211C123.64 346.782 124.505 346.364 124.281 345.755C123.192 342.481 121.494 339.703 119.155 337.496C118.835 337.191 118.322 337.381 118.322 337.914C118.386 351.654 121.398 365.204 127.068 377.193C127.324 376.964 127.581 376.736 127.837 376.508C127.26 375.632 126.684 374.757 126.075 373.843C125.819 373.463 125.21 373.767 125.242 374.262C125.979 381.874 128.221 389.068 131.841 395.386C132.162 395.919 132.802 395.576 132.706 394.929C132.546 393.863 131.489 393.483 130.752 394.13C129.407 395.272 130.72 397.974 131.201 399.268C133.027 404.102 135.75 408.326 139.114 411.79C139.786 412.208 140.459 411.409 139.978 410.953Z" fill="#E8E8E8"/>
<path d="M106.469 325.583C106.052 318.427 116.977 322.538 120.02 323.223C125.018 324.327 129.983 325.43 134.981 326.534C144.944 328.742 154.939 330.949 164.902 333.157C165.511 333.309 165.767 332.205 165.159 332.053C153.722 329.503 142.317 326.991 130.88 324.441C125.274 323.185 119.668 321.929 114.061 320.711C112.043 320.254 109.704 319.759 107.814 321.015C106.373 321.929 105.412 323.604 105.54 325.583C105.54 326.306 106.533 326.306 106.469 325.583Z" fill="#E8E8E8"/>
<path d="M158.271 331.901C161.603 332.319 163.653 328.551 166.248 326.725C168.459 325.202 170.381 326.382 172.655 326.915C175.186 327.524 177.781 327.6 180.344 327.219C180.953 327.143 180.953 326.001 180.344 326.078C177.461 326.496 174.577 326.344 171.758 325.507C170.06 324.974 168.523 324.327 166.825 325.126C163.813 326.496 161.763 331.216 158.271 330.759C157.662 330.683 157.662 331.825 158.271 331.901Z" fill="#E8E8E8"/>
<path d="M219.364 405.091C227.052 401.894 234.805 398.697 242.75 396.413C251.047 394.054 259.409 393.102 267.93 393.407C276.356 393.711 284.717 394.853 293.111 395.766C301.536 396.718 309.962 397.631 318.387 398.583C328.062 399.648 337.769 400.714 347.444 401.818C348.052 401.894 348.052 400.752 347.444 400.676C330.176 398.773 312.909 396.87 295.609 394.929C278.983 393.102 262.26 390.4 245.697 394.472C236.599 396.718 227.821 400.372 219.075 403.987C218.531 404.216 218.787 405.319 219.364 405.091Z" fill="#E8E8E8"/>
<path d="M253.226 367.64C258.96 366.193 264.342 363.339 269.756 360.751C275.555 358.01 281.417 356.107 287.632 355.46C293.911 354.813 300.223 355.194 306.47 355.651C312.749 356.107 319.028 356.64 325.339 357.173C332.675 357.82 340.043 358.543 347.379 359.304C347.988 359.38 347.988 358.239 347.379 358.163C334.373 356.792 321.366 355.612 308.328 354.623C295.93 353.671 283.724 353.291 271.903 358.505C265.624 361.284 259.537 364.823 252.937 366.498C252.393 366.688 252.617 367.792 253.226 367.64Z" fill="#E8E8E8"/>
<path d="M327.069 323.756C331.65 319.607 336.487 315.534 341.613 312.414C344.112 310.891 346.803 309.673 349.622 309.407C352.666 309.102 355.709 309.825 358.688 310.282C364.743 311.158 370.83 311.69 376.917 312.147C380.953 312.452 386.079 313.137 388.93 308.95C389.315 308.379 388.642 307.58 388.258 308.151C385.022 312.908 378.198 311.119 373.777 310.777C367.69 310.282 361.668 309.597 355.613 308.684C353.018 308.303 350.455 307.999 347.86 308.569C345.297 309.102 342.895 310.32 340.62 311.766C335.686 314.887 331.009 318.77 326.556 322.804C326.108 323.223 326.588 324.212 327.069 323.756Z" fill="#E8E8E8"/>
<path d="M150.711 317.476C155.26 313.403 159.841 309.369 164.39 305.296C168.747 301.414 172.815 297.342 178.518 296.999C183.9 296.695 189.41 297.418 194.76 297.951C200.527 298.521 206.261 299.283 211.963 300.234C216.769 301.033 222.503 303.165 227.052 300.196C227.597 299.854 227.117 298.864 226.572 299.207C224.233 300.729 221.638 300.729 219.043 300.348C216.256 299.93 213.469 299.359 210.682 298.902C205.3 298.027 199.886 297.304 194.44 296.771C189.09 296.238 183.548 295.477 178.198 295.857C173.232 296.2 169.548 299.245 165.671 302.708C160.514 307.275 155.388 311.881 150.23 316.448C149.75 316.943 150.23 317.932 150.711 317.476Z" fill="#E8E8E8"/>
<path d="M330.945 357.706C331.234 355.194 331.65 352.758 332.259 350.322C332.547 349.18 332.835 348.038 333.22 346.897C333.444 346.211 334.053 345.07 334.886 345.336C335.302 345.488 335.494 347.201 335.526 347.544C335.59 348.153 336.295 348.343 336.455 347.696C337.961 341.873 339.691 335.478 344.304 332.091C344.048 331.939 343.824 331.748 343.567 331.596C343.567 332.548 343.535 333.537 343.535 334.489C343.535 335.022 344.208 335.288 344.432 334.793C347.284 327.752 350.391 320.368 356.158 316.106C355.933 315.877 355.677 315.687 355.453 315.459C352.569 324.327 349.206 332.966 345.393 341.34C345.137 341.873 345.778 342.558 346.162 342.025C348.309 338.98 350.487 335.935 353.306 333.728C353.082 333.461 352.858 333.195 352.634 332.928C349.078 341.835 345.201 350.512 340.94 358.962C340.62 359.609 341.453 360.18 341.773 359.533C346.002 351.083 349.911 342.405 353.466 333.499C353.659 333.043 353.242 332.357 352.794 332.7C349.911 334.984 347.668 338.067 345.458 341.188C345.714 341.416 345.97 341.644 346.226 341.873C350.071 333.423 353.466 324.707 356.382 315.725C356.542 315.268 355.997 314.85 355.677 315.078C349.75 319.455 346.547 326.953 343.599 334.184C343.888 334.299 344.208 334.375 344.496 334.489C344.496 333.537 344.528 332.548 344.528 331.596C344.528 331.178 344.112 330.873 343.792 331.101C338.986 334.641 337.096 341.264 335.526 347.391C335.847 347.429 336.167 347.506 336.455 347.544C336.295 345.603 334.822 342.291 333.028 344.765C332.131 346.021 331.778 348.076 331.394 349.637C330.753 352.149 330.304 354.737 329.984 357.363C329.952 358.124 330.849 358.429 330.945 357.706Z" fill="#E8E8E8"/>
<path d="M107.11 293.459C109.609 291.861 112.139 290.262 114.894 289.387C117.81 288.474 120.693 288.778 123.608 289.235C129.407 290.148 135.205 291.062 140.972 291.975C141.58 292.089 141.58 290.947 140.972 290.833C134.789 289.844 128.574 288.778 122.391 287.903C119.54 287.484 116.817 287.484 114.062 288.435C111.435 289.349 109 290.909 106.597 292.432C106.053 292.85 106.565 293.802 107.11 293.459Z" fill="#E8E8E8"/>
<path d="M301.985 35.2945C304.291 32.9728 307.527 33.4295 310.058 34.9139C311.98 36.0176 313.55 38.2632 315.792 38.3774C317.874 38.4535 319.604 36.7789 321.366 35.6751C322.552 34.9519 323.769 34.4572 325.115 34.7997C326.556 35.1423 327.806 36.1318 329.119 36.8169C333.444 39.0625 336.327 35.9415 339.979 33.4676C341.004 32.7825 342.094 32.1735 343.279 32.0593C344.785 31.9071 346.13 32.7064 347.476 33.3915C349.59 34.4572 351.192 34.8758 353.338 33.8482C355.549 32.8206 357.343 32.9728 359.553 33.9243C360.963 34.5333 362.308 35.2945 363.782 35.6751C365.993 36.2841 368.363 36.1318 370.029 34.1146C370.478 33.5818 369.773 32.7825 369.356 33.3153C367.21 35.9035 363.942 34.6855 361.475 33.5437C358.977 32.4019 356.414 31.1839 353.755 32.3638C352.089 33.125 350.968 33.6579 349.174 32.9347C347.956 32.4399 346.835 31.6407 345.586 31.222C343.695 30.5369 341.933 30.9175 340.204 31.9452C338.217 33.125 336.487 34.99 334.405 35.9796C331.65 37.2736 329.504 35.5609 327.005 34.3049C325.179 33.3915 323.449 33.2392 321.623 34.1907C319.412 35.3706 317.266 37.9587 314.671 36.855C313.293 36.2841 312.204 34.9519 310.955 34.1146C309.897 33.4295 308.744 32.9347 307.559 32.6683C305.284 32.1735 303.074 32.6303 301.28 34.4191C300.831 34.99 301.536 35.7893 301.985 35.2945Z" fill="#E8E8E8"/>
<path d="M313.518 61.2898C314.126 61.2898 314.126 60.1479 313.518 60.1479C312.909 60.1479 312.909 61.2898 313.518 61.2898Z" fill="#E8E8E8"/>
<path d="M319.925 65.4384C321.43 62.2032 324.986 63.7637 327.197 64.8294C329.407 65.8951 331.394 66.5421 333.732 65.5906C335.654 64.7913 337.384 63.2689 339.371 62.7361C342.126 61.9748 343.695 64.7533 346.194 65.4003C350.103 66.4279 354.043 61.2517 357.727 63.4211C358.752 64.0301 359.457 64.8294 360.675 64.7152C361.796 64.6391 362.821 63.9921 363.91 63.6876C366.954 62.8502 370.125 63.4973 372.848 65.2861C373.393 65.6287 373.873 64.6391 373.329 64.2965C371.599 63.1547 369.741 62.4696 367.786 62.2413C366.793 62.1271 365.768 62.1651 364.775 62.3554C363.59 62.5457 362.501 63.1547 361.347 63.4211C359.777 63.7637 359.105 62.8502 357.823 62.2032C357.183 61.8987 356.478 61.7465 355.805 61.7845C354.203 61.8607 352.666 62.6599 351.192 63.307C349.302 64.1443 347.283 64.9436 345.361 63.8017C343.727 62.8502 342.446 61.4039 340.524 61.4039C336.551 61.442 333.764 65.9712 329.568 64.601C326.46 63.5734 321.462 59.9576 319.156 64.8294C318.803 65.5145 319.636 66.0854 319.925 65.4384Z" fill="#E8E8E8"/>
<path d="M288.85 110.997C291.124 108.866 293.719 108.98 296.218 110.35C297.596 111.111 299.069 111.834 300.511 110.807C301.344 110.198 301.889 109.246 302.882 108.904C303.939 108.523 305.06 108.789 306.085 109.094C307.911 109.627 309.673 110.578 311.563 110.73C313.806 110.921 315.856 109.779 318.035 109.513C320.373 109.246 322.007 110.921 324.186 111.301C326.3 111.644 327.934 109.627 330.048 110.007C332.611 110.464 335.142 111.492 337.673 112.253C338.281 112.443 338.538 111.339 337.929 111.149C335.27 110.35 332.515 109.132 329.792 108.789C327.485 108.485 325.819 110.73 323.513 109.893C321.366 109.132 319.829 108.028 317.522 108.409C315.055 108.827 312.813 109.969 310.282 109.322C308.328 108.827 306.438 107.724 304.419 107.571C303.683 107.533 302.914 107.61 302.209 107.952C301.312 108.371 300.831 109.246 299.998 109.817C298.076 111.149 295.481 108.333 293.431 108.142C291.477 107.952 289.683 108.751 288.145 110.16C287.665 110.654 288.369 111.454 288.85 110.997Z" fill="#E8E8E8"/>
<path d="M105.187 27.9488C105.796 27.9488 105.796 26.8069 105.187 26.8069C104.579 26.8069 104.579 27.9488 105.187 27.9488Z" fill="#E8E8E8"/>
<path d="M108.007 28.8242C108.583 25.4368 112.363 27.6062 113.741 28.6339C115.311 29.8137 116.977 30.8794 118.899 30.2324C120.981 29.5093 122.391 27.3779 124.697 27.2256C126.876 27.1114 128.99 28.2913 131.04 29.0525C132.802 29.6996 134.66 30.1563 136.487 29.6234C138.633 29.0145 140.459 27.2256 142.637 26.7689C146.93 25.8935 150.807 30.0421 155.164 28.4436C155.74 28.2152 155.516 27.1114 154.907 27.3398C150.358 29.0525 146.033 24.2569 141.42 25.9696C139.049 26.845 137.063 28.8242 134.468 28.71C132.066 28.5958 129.887 27.2256 127.613 26.5405C125.819 26.0077 123.993 25.8554 122.263 26.807C121.269 27.3398 120.404 28.2152 119.411 28.7861C117.778 29.6996 116.4 29.1667 114.926 28.1771C113.325 27.0734 111.947 25.7793 109.993 25.9696C108.615 26.0838 107.398 26.9211 107.142 28.5958C106.981 29.2428 107.91 29.5473 108.007 28.8242Z" fill="#E8E8E8"/>
<path d="M110.922 251.06C114.734 249.157 118.578 252.544 122.423 252.773C124.409 252.887 126.331 252.316 128.285 251.859C130.752 251.288 132.866 251.25 135.237 252.43C136.679 253.153 137.992 253.61 139.466 252.925C140.299 252.544 141.004 251.897 141.837 251.555C142.766 251.174 143.727 251.098 144.72 251.098C148.148 251.174 151.576 252.582 154.843 250.755C155.388 250.451 154.907 249.461 154.363 249.766C150.871 251.707 146.994 249.576 143.31 250.032C141.548 250.261 140.395 251.479 138.761 252.049C136.807 252.735 134.885 250.755 132.963 250.413C128.83 249.652 124.922 252.392 120.757 251.402C117.425 250.603 114.061 248.282 110.666 249.994C110.121 250.261 110.377 251.364 110.922 251.06Z" fill="#E8E8E8"/>
<path d="M41.6601 194.997C44.4556 194.997 46.7218 192.304 46.7218 188.983C46.7218 185.662 44.4556 182.97 41.6601 182.97C38.8646 182.97 36.5984 185.662 36.5984 188.983C36.5984 192.304 38.8646 194.997 41.6601 194.997Z" fill="#0A3871"/>
<path d="M336.295 153.663C338.259 153.663 339.851 151.771 339.851 149.438C339.851 147.105 338.259 145.213 336.295 145.213C334.331 145.213 332.739 147.105 332.739 149.438C332.739 151.771 334.331 153.663 336.295 153.663Z" fill="#0A3871"/>
<path d="M304.291 6.48253C305.742 6.48253 306.918 5.08523 306.918 3.36157C306.918 1.63791 305.742 0.240601 304.291 0.240601C302.84 0.240601 301.664 1.63791 301.664 3.36157C301.664 5.08523 302.84 6.48253 304.291 6.48253Z" fill="#0A3871"/>
<path d="M188.577 277.131C190.382 277.131 191.845 275.393 191.845 273.249C191.845 271.105 190.382 269.367 188.577 269.367C186.772 269.367 185.309 271.105 185.309 273.249C185.309 275.393 186.772 277.131 188.577 277.131Z" fill="#0A3871"/>
<path d="M37.9439 56.6465C40.014 56.6465 41.6921 54.6528 41.6921 52.1934C41.6921 49.734 40.014 47.7403 37.9439 47.7403C35.8738 47.7403 34.1957 49.734 34.1957 52.1934C34.1957 54.6528 35.8738 56.6465 37.9439 56.6465Z" fill="#0A3871"/>
<path d="M167.177 212.885C168.362 212.885 169.323 211.744 169.323 210.335C169.323 208.927 168.362 207.785 167.177 207.785C165.992 207.785 165.031 208.927 165.031 210.335C165.031 211.744 165.992 212.885 167.177 212.885Z" fill="#0A3871"/>
<path d="M369.773 234.58C371.577 234.58 373.04 232.842 373.04 230.698C373.04 228.554 371.577 226.815 369.773 226.815C367.968 226.815 366.505 228.554 366.505 230.698C366.505 232.842 367.968 234.58 369.773 234.58Z" fill="#0A3871"/>
<path d="M13.5965 298.75C14.9412 298.75 16.0312 297.455 16.0312 295.857C16.0312 294.26 14.9412 292.965 13.5965 292.965C12.2518 292.965 11.1617 294.26 11.1617 295.857C11.1617 297.455 12.2518 298.75 13.5965 298.75Z" fill="#0A3871"/>
<path d="M113.164 73.9641C110.377 80.7008 107.558 87.4375 104.771 94.1742C116.304 112.557 127.837 130.903 139.37 149.286C142.349 143.919 145.297 138.439 148.276 132.92C155.292 119.827 161.987 106.886 168.394 94.0601C166.216 87.4756 164.006 80.853 161.827 74.2685C160.418 73.3931 159.008 72.5558 157.598 71.6804C143.951 71.7185 130.304 71.7565 116.688 71.7946C115.471 72.5558 114.318 73.279 113.164 73.9641Z" fill="white"/>
<path d="M105.156 94.4787C107.59 88.1226 110.089 81.8045 112.652 75.5246C112.908 74.8775 112.107 74.2686 111.819 74.9536C109.256 81.2336 106.757 87.5517 104.323 93.9078C104.066 94.5548 104.899 95.1638 105.156 94.4787Z" fill="black"/>
<path d="M104.515 95.1638C115.792 113.547 127.292 131.702 139.018 149.705C139.402 150.276 140.075 149.476 139.69 148.905C128.029 130.979 116.592 112.9 105.348 94.5929C104.995 94.022 104.162 94.5929 104.515 95.1638Z" fill="black"/>
<path d="M112.876 74.8776C114.222 74.0402 115.535 73.1648 116.881 72.3275C117.425 71.985 116.945 70.9954 116.4 71.3379C115.055 72.1753 113.741 73.0507 112.396 73.888C111.819 74.2686 112.332 75.2201 112.876 74.8776Z" fill="black"/>
<path d="M117.682 72.4036C127.677 72.4036 137.704 72.4036 147.699 72.4036C148.308 72.4036 148.308 71.2618 147.699 71.2618C137.704 71.2618 127.677 71.2618 117.682 71.2618C117.073 71.2618 117.073 72.4036 117.682 72.4036Z" fill="black"/>
<path d="M168.843 93.9458C166.825 87.5897 164.742 81.3098 162.596 74.9917C162.372 74.3066 161.443 74.6111 161.667 75.2962C163.813 81.5762 165.896 87.8942 167.914 94.2503C168.138 94.9354 169.067 94.6309 168.843 93.9458Z" fill="black"/>
<path d="M167.786 94.5168C158.399 112.786 148.82 130.941 139.049 148.943C138.697 149.552 139.53 150.123 139.882 149.514C149.653 131.512 159.232 113.395 168.619 95.0877C168.939 94.4788 168.106 93.8698 167.786 94.5168Z" fill="black"/>
<path d="M162.019 73.8119C160.898 72.9746 159.777 72.0992 158.656 71.2619C158.143 70.8812 157.662 71.8328 158.175 72.2514C159.296 73.0888 160.418 73.9642 161.539 74.8015C162.083 75.2202 162.564 74.2306 162.019 73.8119Z" fill="black"/>
<path d="M157.566 71.1477C149.205 71.1477 140.844 71.1477 132.514 71.1477C131.906 71.1477 131.906 72.2895 132.514 72.2895C140.876 72.2895 149.237 72.2895 157.566 72.2895C158.175 72.2895 158.175 71.1477 157.566 71.1477Z" fill="black"/>
<path d="M105.54 95.0497C111.274 92.119 117.009 89.1883 122.743 86.2577C123.32 85.9532 122.807 85.0017 122.263 85.2681C116.528 88.1987 110.794 91.1294 105.059 94.0601C104.515 94.3646 104.995 95.3541 105.54 95.0497Z" fill="black"/>
<path d="M113.036 74.535C116.56 75.182 120.02 76.0955 123.448 77.2373C124.057 77.4276 124.313 76.3239 123.704 76.1335C120.276 74.9537 116.817 74.0783 113.293 73.4312C112.684 73.3171 112.396 74.4208 113.036 74.535Z" fill="black"/>
<path d="M123.192 77.0471C123.961 79.9016 124.633 82.7562 125.21 85.6868C125.338 86.41 126.267 86.1055 126.139 85.3823C125.562 82.4517 124.89 79.5971 124.121 76.7426C123.928 76.0575 122.999 76.3239 123.192 77.0471Z" fill="black"/>
<path d="M124.665 77.1612C133.251 77.1612 141.805 77.1612 150.39 77.1612C150.999 77.1612 150.999 76.0194 150.39 76.0194C141.805 76.0194 133.251 76.0194 124.665 76.0194C124.057 76.0194 124.057 77.1612 124.665 77.1612Z" fill="black"/>
<path d="M149.974 77.3896C149.654 79.483 149.333 81.6144 149.013 83.7077C148.917 84.4308 149.846 84.7353 149.942 84.0122C150.262 81.9188 150.583 79.7875 150.903 77.6941C150.999 76.971 150.07 76.6665 149.974 77.3896Z" fill="black"/>
<path d="M125.723 85.7628C133.219 85.7628 140.715 85.7628 148.244 85.7628C148.853 85.7628 148.853 84.621 148.244 84.621C140.748 84.621 133.251 84.621 125.723 84.621C125.114 84.621 125.114 85.7628 125.723 85.7628Z" fill="black"/>
<path d="M151.319 77.1613C154.811 76.2859 158.271 75.4105 161.763 74.5351C162.372 74.3828 162.116 73.2791 161.507 73.4313C158.015 74.3067 154.555 75.1821 151.063 76.0575C150.454 76.2097 150.711 77.3135 151.319 77.1613Z" fill="black"/>
<path d="M149.718 85.4204C152.953 86.0293 155.965 88.1988 158.912 89.8354C162.051 91.5862 165.159 93.337 168.298 95.0878C168.843 95.3922 169.356 94.4027 168.779 94.0982C165.447 92.2332 162.148 90.4063 158.816 88.5413C155.997 86.9428 153.081 84.9256 149.974 84.3166C149.365 84.2024 149.109 85.3062 149.718 85.4204Z" fill="black"/>
<path d="M126.011 87.5137C130.176 107.914 134.308 128.353 138.473 148.753C138.633 149.476 139.53 149.172 139.402 148.449C135.237 128.048 131.105 107.61 126.94 87.2092C126.78 86.4861 125.851 86.7905 126.011 87.5137Z" fill="black"/>
<path d="M148.372 88.8838C144.464 108.523 141.228 128.391 138.729 148.373C138.633 149.096 139.562 149.4 139.658 148.677C142.157 128.695 145.393 108.866 149.301 89.1883C149.461 88.4652 148.532 88.1607 148.372 88.8838Z" fill="black"/>
<path d="M148.692 50.7853C150.134 46.4083 150.935 41.803 151.063 37.0835C151.095 36.3603 150.134 36.3603 150.102 37.0835C149.974 41.6888 149.173 46.18 147.763 50.4808C147.539 51.1659 148.468 51.4323 148.692 50.7853Z" fill="black"/>
<path d="M155.26 51.5464C158.335 47.3978 161.795 43.744 165.671 40.6611C166.184 40.2424 165.703 39.2529 165.191 39.6715C161.25 42.7925 157.694 46.5224 154.587 50.7472C154.171 51.28 154.843 52.0793 155.26 51.5464Z" fill="black"/>
<path d="M161.571 58.5877C165.543 57.1794 169.644 56.6466 173.777 57.0272C174.385 57.0652 174.385 55.9234 173.777 55.8854C169.548 55.5048 165.383 56.0376 161.315 57.4839C160.738 57.7123 160.962 58.816 161.571 58.5877Z" fill="black"/>
<path d="M94.071 31.9072C94.4555 39.4432 90.8995 46.6366 85.197 49.9098C84.8767 50.1001 84.9087 50.671 85.197 50.8994C90.4189 54.6293 92.8216 61.4803 94.1992 68.217C94.3594 68.9401 95.2564 68.6356 95.1282 67.9125C93.6866 60.8713 91.1237 53.754 85.6776 49.9098C85.6776 50.2524 85.6776 50.5569 85.6776 50.8994C91.6683 47.4359 95.4486 39.7857 95.0321 31.9072C95.0001 31.184 94.039 31.184 94.071 31.9072Z" fill="#E8E8E8"/>
<path d="M94.4234 31.9072C94.0069 39.8238 97.7871 47.4739 103.778 50.8994C103.778 50.5569 103.778 50.2524 103.778 49.9098C98.2997 53.792 95.7368 60.9093 94.2952 67.9886C94.135 68.7117 95.0641 69.0162 95.2243 68.2931C96.6018 61.5183 99.0045 54.6293 104.258 50.8994C104.547 50.7091 104.579 50.1001 104.258 49.9098C98.556 46.6366 94.968 39.4432 95.3524 31.9072C95.4165 31.184 94.4554 31.184 94.4234 31.9072Z" fill="#E8E8E8"/>
<path d="M250.407 317.628C251.528 317.057 253.066 316.22 254.828 315.04C257.775 313.099 259.249 312.109 260.146 310.549C261.299 308.494 260.85 307.39 262.356 305.334C262.58 304.992 263.638 303.66 265.015 302.937C267.386 301.757 269.596 303.165 273.28 304.726C276.676 306.172 279.335 306.857 284.653 308.265C286.768 308.836 289.33 309.407 293.047 310.777C294.104 311.158 294.937 311.5 295.513 311.729C295.577 312.528 295.61 314.583 294.488 316.448C293.976 317.285 293.271 317.971 292.15 318.58C289.555 320.026 287.088 319.759 285.006 319.645C280.521 319.417 282.379 320.178 271.807 320.406C269.5 320.445 267.61 320.445 266.297 320.445C264.663 321.777 263.029 323.147 261.363 324.555C258.544 326.991 255.853 329.427 253.29 331.825C252.329 327.105 251.368 322.348 250.407 317.628Z" fill="black"/>
<path d="M237.048 268.91C234.741 270.357 234.485 270.89 225.899 279.567C212.508 293.079 211.035 293.802 198.893 306.4C187.264 318.427 185.085 321.434 182.875 325.392C177.365 335.402 176.147 343.776 175.795 347.848C175.314 353.329 174.674 360.941 178.742 366.955C181.305 370.723 184.637 372.283 185.758 372.778C189.122 374.3 191.877 374.11 196.843 373.691C203.442 373.12 208.472 371.598 210.458 370.951C212.636 370.228 217.698 368.439 224.041 364.709C230 361.207 232.563 358.619 240.7 352.111C244.32 349.218 249.67 344.994 256.398 340.122C256.814 336.316 256.462 333.347 256.109 331.482C255.276 327.067 253.578 324.022 251.688 320.673C250.151 317.932 248.677 315.839 247.652 314.469C250.054 312.3 253.194 309.179 256.494 304.992C258.704 302.175 262.196 297.684 265.111 291.366C268.699 283.602 272.287 275.761 269.981 270.357C266.361 261.869 249.125 261.489 237.048 268.91Z" fill="white"/>
<path opacity="0.18" d="M265.752 273.059C263.926 278.083 260.915 285.2 256.109 292.813C249.125 303.812 242.077 309.902 231.441 318.922C201.36 344.423 193.287 350.246 194.184 352.682C195.401 355.993 212.348 350.056 214.815 349.18C232.819 342.862 246.082 333.119 254.379 326.001C252.265 322.157 250.15 318.313 248.036 314.507C250.631 312.3 254.219 308.798 257.583 303.584C259.441 300.729 262.26 296.314 264.086 289.653C265.944 283.031 266.008 277.132 265.752 273.059Z" fill="#9B9797"/>
<path d="M236.92 268.873C225.515 278.959 214.398 289.539 203.698 300.615C198.573 305.906 193.447 311.196 188.641 316.867C184.381 321.891 180.408 327.448 178.005 334.07C175.507 340.921 174.802 348.838 175.411 356.26C175.923 362.387 177.813 368.553 182.523 371.75C187.456 375.062 193.671 374.719 199.117 374.034C205.813 373.235 212.412 371.294 218.659 368.287C232.595 361.55 243.519 348.952 256.686 340.617C257.23 340.274 256.75 339.285 256.205 339.627C245.217 346.592 235.862 356.64 224.842 363.605C219.076 367.259 212.861 369.923 206.453 371.56C200.527 373.044 193.863 374.186 187.84 372.816C185.021 372.169 182.298 370.799 180.28 368.287C178.326 365.813 177.269 362.578 176.724 359.266C175.539 352.073 176.083 343.928 178.07 337.001C180.056 330.074 183.932 324.251 188.161 319.074C192.55 313.708 197.355 308.76 202.064 303.85C213.437 291.975 225.226 280.633 237.4 269.9C237.881 269.443 237.432 268.454 236.92 268.873Z" fill="black"/>
<path d="M205.524 346.897C216.032 342.063 225.547 334.832 234.581 326.915C239.034 323.033 243.423 318.998 247.78 314.964C252.073 310.968 256.173 306.743 259.505 301.605C259.889 301.034 259.056 300.463 258.672 301.034C255.276 306.286 251.015 310.511 246.659 314.583C242.366 318.58 238.041 322.538 233.62 326.382C224.778 334.07 215.52 341.15 205.268 345.831C204.691 346.059 204.948 347.163 205.524 346.897Z" fill="black"/>
<path d="M247.299 314.85C253.482 321.016 256.75 330.569 255.885 340.122C255.821 340.845 256.782 340.845 256.846 340.122C257.711 330.302 254.315 320.407 247.972 314.05C247.524 313.556 246.851 314.355 247.299 314.85Z" fill="black"/>
<path d="M255.821 329.503C257.647 328.856 259.249 327.029 260.786 325.735C262.709 324.136 264.599 322.538 266.521 320.939C267.033 320.521 266.553 319.531 266.04 319.95C264.31 321.396 262.548 322.88 260.818 324.327C259.217 325.659 257.455 327.714 255.565 328.399C254.956 328.589 255.212 329.693 255.821 329.503Z" fill="black"/>
<path d="M250.535 318.161C254.155 316.372 257.487 313.936 260.498 310.929C260.979 310.435 260.274 309.635 259.825 310.13C256.974 313.023 253.771 315.344 250.311 317.057C249.734 317.362 249.99 318.465 250.535 318.161Z" fill="black"/>
<path d="M260.146 310.435C260.754 310.435 260.754 309.293 260.146 309.293C259.537 309.293 259.537 310.435 260.146 310.435Z" fill="black"/>
<path d="M261.299 309.064C261.844 307.542 262.42 305.867 263.445 304.687C264.823 303.089 266.489 303.317 268.251 303.774C271.519 304.649 274.722 305.867 277.926 306.971C280.905 307.961 283.884 308.836 286.96 309.255C288.754 309.483 290.26 309.749 291.861 310.701C293.047 311.386 294.072 312.071 295.385 312.223C295.994 312.3 295.994 311.158 295.385 311.082C293.623 310.891 292.246 309.445 290.58 308.798C288.914 308.151 287.056 308.189 285.326 307.846C281.546 307.123 277.862 305.753 274.21 304.459C272.416 303.85 270.621 303.241 268.795 302.746C267.45 302.404 266.04 301.985 264.695 302.48C262.356 303.317 261.235 306.286 260.37 308.76C260.146 309.445 261.075 309.749 261.299 309.064Z" fill="black"/>
<path d="M266.393 321.777C273.248 320.559 280.04 320.368 286.96 320.216C289.363 320.178 291.925 319.836 293.848 317.971C295.481 316.372 296.41 314.05 295.962 311.576C295.834 310.853 294.905 311.158 295.033 311.881C295.642 315.344 293.015 317.894 290.42 318.656C287.761 319.417 284.877 319.036 282.154 319.112C276.772 319.227 271.454 319.759 266.136 320.711C265.528 320.787 265.816 321.891 266.393 321.777Z" fill="black"/>
<path d="M290.708 314.202C293.079 312.185 295.481 310.168 297.852 308.151C298.012 306.857 298.525 304.04 300.479 301.642C301.056 300.919 302.401 299.244 304.419 298.788C306.534 298.293 308.168 299.435 309.994 300.424C312.941 302.023 315.792 302.632 321.43 303.926C325.883 304.916 328.126 305.41 331.33 305.22C335.687 304.916 338.794 303.545 340.652 305.715C340.844 305.943 341.645 306.971 341.581 308.227C341.485 309.825 340.043 310.853 338.89 311.652C333.86 315.078 331.041 316.067 331.041 316.067C323.929 318.541 320.341 319.797 317.266 320.102C314.767 320.33 311.211 320.444 306.918 319.645C305.669 324.745 301.889 328.018 298.333 327.752C293.751 327.409 289.523 321.282 290.708 314.202Z" fill="black"/>
<path d="M244.704 280.557C245.409 278.007 246.722 274.772 249.189 273.706C250.791 273.021 252.265 273.477 252.745 273.63C255.725 274.505 261.843 273.249 274.049 270.775C280.104 269.557 287.761 267.768 296.57 265.104C296.603 267.045 296.57 269.595 296.474 272.564C296.25 279.225 295.673 284.249 295.545 285.428C295.001 290.148 294.04 297.988 291.124 307.504C290.388 309.94 289.651 311.957 289.138 313.327C290.388 314.012 291.733 314.925 293.047 316.22C298.461 321.358 300.03 328.627 300.543 331.71C299.774 332.814 298.621 334.451 297.147 336.316C291.188 343.852 285.678 348.076 275.17 355.803C268.699 360.56 263.958 364.024 256.365 369.352C247.139 375.822 239.675 380.846 230.384 384.005C228.078 384.805 224.425 385.87 219.812 385.299C217.57 385.033 213.533 384.538 209.657 381.189C204.691 376.926 203.121 370.684 202.481 367.944C201.039 361.816 201.584 356.069 202.929 350.093C203.858 345.907 207.222 332.015 218.915 316.372C221.254 313.251 227.917 306.21 241.18 292.127C244.384 288.74 247.011 285.961 248.773 284.134C247.427 282.916 246.082 281.737 244.704 280.557Z" fill="white"/>
<path opacity="0.18" d="M288.273 270.014C287.536 273.363 286.351 278.197 284.557 283.868C268.187 335.402 231.602 357.668 234.581 363.224C236.759 367.335 257.647 357.097 272.704 346.325C283.98 338.257 292.374 329.617 297.98 323.108C297.083 321.548 295.706 319.417 293.623 317.399C291.605 315.458 289.683 314.278 288.241 313.555C289.234 311.843 290.548 309.254 291.669 305.943C292.406 303.812 293.047 301.528 293.88 296.885C295.225 289.539 295.77 283.716 295.93 281.889C296.314 277.512 296.667 271.841 296.603 265.142C293.816 266.741 291.06 268.377 288.273 270.014Z" fill="#9B9797"/>
<path d="M296.122 265.104C296.154 272.298 295.77 279.491 294.937 286.647C294.168 293.079 293.207 299.701 291.221 305.791C289.074 312.375 285.39 317.171 280.937 321.7C276.388 326.306 271.807 330.835 267.226 335.364C261.972 340.578 256.686 345.755 251.432 350.969C250.951 351.426 251.624 352.225 252.105 351.768C261.747 342.253 271.39 332.776 280.969 323.147C285.198 318.884 289.042 314.469 291.349 308.341C293.591 302.404 294.68 295.895 295.545 289.501C296.635 281.432 297.147 273.287 297.083 265.104C297.083 264.343 296.122 264.343 296.122 265.104Z" fill="black"/>
<path d="M245.249 281.623C246.562 282.46 247.876 283.297 249.221 284.135C249.766 284.477 250.247 283.488 249.702 283.145C248.388 282.308 247.075 281.47 245.73 280.633C245.185 280.29 244.704 281.28 245.249 281.623Z" fill="black"/>
<path d="M249.221 283.678C237.817 294.715 225.835 305.639 216.32 319.036C208.119 330.569 201.36 345.184 201.392 360.674C201.392 367.487 202.961 374.605 207.19 379.438C211.419 384.31 217.538 386.213 223.304 385.871C230.352 385.452 237.048 382.141 243.327 378.487C250.054 374.567 256.429 369.923 262.837 365.318C276.035 355.803 290.772 346.935 300.671 332.433C301.056 331.863 300.383 331.063 299.998 331.634C291.701 343.814 280.04 351.616 268.923 359.609C262.805 364.024 256.75 368.515 250.503 372.702C244.384 376.812 238.009 380.732 231.249 383.054C224.906 385.224 217.826 385.68 211.835 381.912C206.069 378.335 203.122 371.408 202.513 363.872C201.328 348.647 207.767 333.499 215.552 321.929C225.258 307.504 237.945 296.01 249.926 284.439C250.375 284.02 249.702 283.221 249.221 283.678Z" fill="black"/>
<path d="M288.914 313.784C294.937 317.209 299.133 323.984 300.127 331.824C300.223 332.547 301.152 332.243 301.056 331.52C300.062 323.413 295.641 316.296 289.426 312.794C288.85 312.49 288.369 313.479 288.914 313.784Z" fill="black"/>
<path d="M290.836 314.773C292.118 314.164 293.143 313.137 294.232 312.147C295.513 310.967 296.827 309.825 298.108 308.646C298.589 308.189 298.108 307.199 297.628 307.656C296.474 308.684 295.321 309.711 294.168 310.777C293.047 311.805 291.925 313.061 290.58 313.67C290.035 313.936 290.259 315.04 290.836 314.773Z" fill="black"/>
<path d="M298.589 308.189C299.229 305.943 299.998 303.736 301.024 301.68C302.433 298.864 304.547 299.168 306.918 299.891C310.602 300.995 314.126 302.67 317.842 303.66C325.051 305.563 332.451 306.21 339.819 305.639C340.428 305.601 340.428 304.459 339.819 304.497C331.137 305.182 322.392 304.116 313.998 301.3C311.98 300.615 310.026 299.739 308.007 299.054C306.47 298.521 304.644 297.912 303.042 298.293C301.6 298.635 300.767 299.93 300.062 301.376C299.069 303.431 298.3 305.639 297.66 307.884C297.468 308.569 298.397 308.874 298.589 308.189Z" fill="black"/>
<path d="M299.966 326.572C302.369 324.403 304.74 322.233 307.142 320.064C307.623 319.607 307.142 318.617 306.662 319.074C304.259 321.244 301.889 323.413 299.486 325.582C299.005 326.039 299.486 327.029 299.966 326.572Z" fill="black"/>
<path d="M307.11 319.797C314.927 321.815 322.904 320.292 330.304 316.943C333.668 315.42 337.513 313.708 340.396 311.12C342.414 309.331 342.702 305.905 340.043 304.687C339.467 304.421 339.21 305.525 339.787 305.791C341.229 306.438 341.389 308.303 340.396 309.597C339.915 310.244 339.242 310.663 338.602 311.12C337.288 311.995 335.943 312.794 334.597 313.555C331.746 315.154 328.799 316.524 325.755 317.59C319.765 319.645 313.486 320.33 307.335 318.732C306.758 318.541 306.502 319.645 307.11 319.797Z" fill="black"/>
<path d="M223.625 155.414C228.494 150.618 235.766 144.833 245.473 141.408C250.022 139.809 255.725 137.83 263.285 138.591C274.882 139.771 282.859 146.546 285.678 149.02C290.099 152.864 293.111 156.936 294.969 159.791C295.321 186.471 295.802 213.19 296.41 239.87C296.603 248.091 296.795 256.351 297.019 264.572C292.47 267.921 286.095 271.689 278.022 273.897C259.12 279.035 243.391 272.184 237.016 268.873C236.984 262.136 236.631 252.012 234.901 239.87C232.082 219.927 227.693 211.896 224.938 194.73C223.56 185.862 222.247 172.541 223.625 155.414Z" fill="#0A3871"/>
<path d="M281.546 161.998C279.976 164.053 279.688 166.375 279.784 175.281C279.848 184.644 280.264 191.038 280.521 198.46C280.713 203.827 280.873 208.09 280.777 213.646C280.681 220.65 280.296 226.397 279.944 230.241C276.804 234.427 274.017 237.701 271.935 240.06C267.258 245.351 262.164 251.06 254.635 256.427C251.656 258.52 249.093 260.042 247.363 260.994C245.794 260.689 244.032 260.233 242.109 259.662C237.56 258.291 235.67 257.074 232.242 257.074C231.217 257.074 227.982 257.074 227.661 258.444C227.373 259.586 229.167 261.374 230.576 262.25C231.89 263.049 232.467 262.821 233.78 263.544C235.254 264.381 236.215 265.599 236.791 266.513C236.183 267.54 235.254 269.101 234.229 271.118C233.043 273.478 232.787 274.391 231.409 277.208C229.968 280.176 229.231 281.661 228.59 282.422C227.597 283.526 226.988 283.754 222.535 286.114C218.114 288.474 217.346 289.006 217.346 289.653C217.346 290.3 218.211 290.453 221.638 292.203C224.426 293.612 224.682 293.916 226.123 294.411C227.917 295.02 229.007 295.401 230.32 295.058C232.402 294.563 233.748 292.698 234.325 291.709C234.613 292.013 235.318 292.66 236.247 292.698C236.984 292.698 237.592 292.356 238.073 291.899C240.091 290.186 241.084 287.027 243.07 283.488C243.423 282.879 244.672 280.633 246.691 278.121C247.94 276.522 249.093 275.343 249.926 274.543C251.047 274.239 252.713 273.782 254.7 273.097C262.42 270.471 267.995 267.312 272.672 264.648C275.395 263.087 278.47 261.032 284.589 256.959C289.907 253.42 292.662 251.441 295.097 247.558C295.353 247.14 296.667 245.046 297.82 241.963C298.172 241.012 299.422 237.625 300.095 231.687C300.415 229.061 300.415 227.615 300.447 219.394C300.511 208.927 300.511 210.183 300.511 209.117C300.479 193.779 299.806 195.149 299.582 181.067C299.55 179.734 299.518 176.119 298.589 171.551C297.596 166.604 296.346 164.396 295.642 163.292C294.745 161.884 293.655 160.209 291.797 159.258C288.401 157.469 283.884 158.915 281.546 161.998Z" fill="white"/>
<path opacity="0.25" d="M291.829 159.22C292.598 162.227 293.527 166.565 294.168 171.818C294.937 178.174 295.225 185.177 293.495 203.484C292.053 218.785 291.349 226.435 289.491 233.59C286.832 243.79 284.909 251.212 279.047 257.074C275.267 260.842 271.134 262.592 262.837 266.056C256.75 268.606 251.528 270.128 247.94 271.08C245.377 275.19 241.565 280.405 236.151 285.353C231.922 289.235 227.853 291.899 224.49 293.726C224.97 294.106 226.956 295.629 229.647 295.21C232.787 294.715 234.485 292.051 234.773 291.556C235.382 292.089 236.279 292.66 237.272 292.47C239.322 292.089 240.411 288.626 240.956 287.065C242.141 283.83 244.512 279.377 249.83 274.505C253.354 273.402 258.127 271.727 263.67 269.215C271.39 265.675 276.58 262.25 282.154 258.558C291.092 252.62 293.111 250.185 294.584 247.825C297.275 243.524 298.397 239.109 298.877 237.168C299.742 233.704 299.902 229.822 300.223 222.248C300.447 216.615 300.447 212.276 300.447 209.003C300.447 203.37 300.351 199.183 300.255 195.568C300.127 190.315 299.87 184.149 299.23 176.766C298.749 171.399 298.397 169.268 297.371 166.87C295.802 163.064 293.463 160.628 291.829 159.22Z" fill="#9B9797"/>
<path d="M281.065 161.846C279.399 166.794 279.207 172.122 279.303 177.413C279.399 183.236 279.656 189.021 279.88 194.844C280.328 206.643 280.649 218.48 279.463 230.241C279.399 230.964 280.36 230.964 280.424 230.241C281.578 218.746 281.321 207.138 280.873 195.606C280.649 189.897 280.392 184.187 280.264 178.44C280.136 172.922 280.232 167.365 281.994 162.15C282.218 161.465 281.289 161.161 281.065 161.846Z" fill="black"/>
<path d="M281.321 229.251C278.374 231.192 276.003 234.009 273.729 236.94C271.262 240.099 268.795 243.182 266.04 245.998C260.402 251.821 254.059 256.617 247.267 260.347C246.691 260.651 247.203 261.641 247.748 261.336C254.283 257.759 260.402 253.191 265.88 247.673C268.603 244.97 271.102 242.002 273.505 238.919C276.004 235.684 278.502 232.41 281.77 230.279C282.347 229.86 281.866 228.871 281.321 229.251Z" fill="black"/>
<path d="M247.491 260.423C243.967 259.547 240.412 258.634 236.888 257.682C235.126 257.226 233.332 256.655 231.538 256.274C230.416 256.046 229.231 255.932 228.238 256.693C226.7 257.873 226.7 260.042 228.078 261.336C229.071 262.288 230.352 262.706 231.538 263.163C233.46 263.886 235.094 264.8 236.343 266.741C236.727 267.312 237.56 266.741 237.176 266.17C236.055 264.457 234.709 263.239 232.979 262.516C231.794 262.021 230.48 261.717 229.391 260.994C228.622 260.499 227.629 259.738 228.206 258.368C228.75 257.073 230.128 257.188 231.121 257.378C233.78 257.835 236.439 258.748 239.098 259.471C241.821 260.194 244.544 260.88 247.267 261.565C247.844 261.679 248.1 260.575 247.491 260.423Z" fill="black"/>
<path d="M235.574 266.931C234.164 270.014 232.723 273.059 231.313 276.142C230.608 277.626 230 279.225 229.167 280.671C228.302 282.156 227.148 282.917 225.803 283.678C223.272 285.086 220.549 286.228 218.114 287.865C217.025 288.626 216.32 289.996 217.249 291.328C218.403 292.965 220.677 292.318 222.215 292.013C224.329 291.595 226.348 290.757 228.27 289.692C232.274 287.408 235.67 283.83 238.105 279.415C238.457 278.806 237.624 278.235 237.272 278.844C235.125 282.803 232.146 286 228.654 288.207C226.988 289.235 225.194 290.072 223.368 290.567C222.343 290.871 221.254 291.138 220.165 291.176C219.172 291.252 218.915 291.404 218.435 290.224C217.826 289.539 217.89 289.083 218.595 288.854C218.819 288.74 219.011 288.626 219.236 288.512C221.286 287.37 223.368 286.266 225.419 285.124C227.02 284.249 228.59 283.488 229.679 281.775C230.961 279.758 231.858 277.36 232.883 275.152C234.068 272.602 235.254 270.052 236.407 267.54C236.695 266.855 235.862 266.284 235.574 266.931Z" fill="black"/>
<path d="M250.214 275.267C258.768 272.412 267.065 268.606 275.01 263.886C278.951 261.527 282.795 258.977 286.543 256.16C289.907 253.648 293.463 251.098 295.866 247.254C296.218 246.645 295.385 246.074 295.033 246.683C292.534 250.717 288.626 253.344 285.102 255.932C281.514 258.558 277.798 260.994 274.017 263.239C266.297 267.769 258.256 271.422 249.958 274.201C249.382 274.353 249.638 275.457 250.214 275.267Z" fill="black"/>
<path d="M281.706 162.874C284.365 156.67 291.189 158.078 294.552 162.493C298.589 167.822 298.781 175.624 299.23 182.399C300.191 197.204 300.383 212.124 299.614 226.93C299.23 234.123 298.333 241.735 294.296 247.444C293.912 248.015 294.584 248.814 294.969 248.244C298.589 243.067 299.838 236.521 300.351 229.974C301.024 221.601 301.024 213.114 300.959 204.702C300.895 195.91 300.543 187.08 299.87 178.326C299.358 171.742 298.365 164.472 293.783 160.095C289.875 156.365 283.34 156.479 280.841 162.303C280.585 162.95 281.418 163.521 281.706 162.874Z" fill="black"/>
<path d="M221.35 292.66C223.689 293.916 226.508 295.819 229.167 295.819C231.73 295.781 233.62 293.269 235.35 291.366C240.315 285.885 245.281 280.405 250.246 274.962C250.695 274.467 250.022 273.668 249.574 274.163C245.377 278.806 241.18 283.411 236.984 288.055C235.125 290.072 233.203 292.965 230.865 294.221C228.11 295.705 224.329 293.041 221.863 291.709C221.286 291.366 220.805 292.356 221.35 292.66Z" fill="black"/>
<path d="M234.389 291.861C235.446 294.221 237.785 293.269 238.97 291.633C241.309 288.36 243.135 284.401 245.121 280.862C245.473 280.253 244.64 279.682 244.288 280.291C243.038 282.498 241.789 284.706 240.54 286.913C239.835 288.131 236.727 294.716 235.222 291.29C234.933 290.643 234.1 291.214 234.389 291.861Z" fill="black"/>
<path d="M226.956 289.996C227.917 290.605 229.103 291.214 230.16 290.605C230.705 290.263 230.929 289.73 231.185 289.121C231.634 288.093 232.082 287.294 232.915 286.647C233.428 286.228 232.947 285.239 232.435 285.657C231.666 286.266 231.025 287.027 230.576 288.017C230.256 288.74 230.064 289.616 229.231 289.692C228.622 289.768 227.949 289.311 227.437 289.007C226.924 288.702 226.412 289.654 226.956 289.996Z" fill="black"/>
<path d="M220.389 72.5177C219.268 75.22 218.146 79.7492 217.794 81.2336C217.281 83.365 216.128 88.3509 215.487 94.9735C215.135 98.6273 214.75 102.624 215.071 107.914C215.231 110.426 215.455 114.384 216.705 119.294C217.538 122.644 218.755 127.477 222.055 132.425C224.938 136.726 228.238 139.428 230.865 141.065C232.53 141.103 234.549 140.989 236.791 140.494C240.828 139.58 243.967 137.792 246.082 136.345C246.37 138.286 246.754 140.342 247.235 142.473C248.228 146.888 249.445 150.77 250.663 154.12C251.976 153.853 253.546 153.396 255.212 152.483C260.498 149.552 263.029 144.148 263.926 141.902C263.445 139.695 263.061 137.297 262.708 134.823C261.491 125.574 261.811 117.315 262.58 110.616C263.253 110.883 264.342 111.225 265.688 111.149C268.315 110.959 270.109 109.246 271.006 108.333C271.775 107.572 275.267 103.88 275.138 98.3989C275.106 97.1049 275.042 93.9458 273.152 92.2331C271.39 90.6726 269.019 91.2435 267.29 91.6622C265.303 92.157 263.83 93.1465 262.933 93.8316C263.605 91.2055 265.015 84.4687 262.933 76.6282C262.484 74.9536 259.505 64.2966 250.727 59.6913C238.81 53.3732 224.489 62.7361 220.389 72.5177Z" fill="white"/>
<path opacity="0.24" d="M256.59 72.7461C256.846 76.2857 257.038 81.4239 256.59 87.5136C255.212 105.973 249.061 118.799 247.459 121.996C245.025 126.868 240.86 133.948 234.196 140.913C236.183 140.608 238.457 140.075 240.892 139.048C247.587 136.231 252.072 131.397 254.507 128.238C254.699 132.463 255.308 137.601 256.75 143.234C257.39 145.632 258.095 147.84 258.832 149.819C260.53 147.193 262.196 144.566 263.894 141.902C263.541 139.428 263.221 136.802 262.997 134.1C262.26 125.917 262.26 118.381 262.644 111.682C264.086 111.72 266.168 111.568 268.379 110.54C278.054 105.973 283.564 87.8181 278.342 77.9223C278.118 77.5036 276.964 75.3722 274.594 73.4692C267.258 67.6079 257.935 72.061 256.59 72.7461Z" fill="#9B9797"/>
<path d="M218.05 80.0918C217.409 77.4656 216.512 72.4416 217.441 66.2758C217.73 64.3728 218.723 58.245 222.247 53.4113C227.405 46.3701 233.876 47.7022 242.269 44.1245C247.587 41.879 254.892 37.1595 262.292 26.0458C261.619 30.1563 260.946 34.3049 260.274 38.4155C261.427 38.7961 265.303 39.7856 269.276 37.4639C275.875 33.6198 276.452 24.333 276.484 23.9144C277.285 26.0458 278.726 30.7653 278.086 36.7788C277.637 40.8894 276.388 43.9723 275.491 45.8373C275.875 46.3321 277.925 48.8441 280.296 48.4634C283.179 48.0067 285.87 43.3253 285.101 37.2736C285.742 39.5192 286.511 43.2111 286.319 47.7403C286.063 53.2591 284.525 57.4077 283.5 59.6533C283.756 59.9197 285.39 61.6705 287.696 61.3279C289.715 61.0234 291.445 59.2727 292.117 56.7987C291.957 59.3488 291.573 63.0407 290.323 67.2654C288.625 72.9745 287.216 73.4312 286.511 77.5037C285.39 83.8979 288.273 86.0673 287.504 91.7764C286.863 96.5721 284.237 99.5788 280.905 103.423C274.85 110.388 267.898 114.156 262.068 116.249C262.324 114.118 262.612 111.987 262.869 109.855C263.605 110.388 264.887 111.111 266.489 111.035C269.756 110.883 271.807 107.419 272.896 105.554C274.145 103.461 276.228 99.8833 275.106 96.0392C274.177 92.9182 271.71 91.6242 271.486 91.51C268.603 90.0637 264.887 91.3577 262.484 94.8593C261.139 88.5793 259.825 82.3374 258.48 76.0574C253.93 72.6319 249.413 69.2445 244.864 65.8191C242.622 65.3243 236.503 64.3347 229.647 67.9505C222.727 71.6043 219.203 77.8082 218.05 80.0918Z" fill="#0A3871"/>
<path d="M217.57 79.9396C214.847 92.0428 213.213 104.907 215.712 117.277C217.762 127.325 222.952 138.781 231.794 142.054C232.37 142.283 232.627 141.179 232.05 140.951C223.176 137.677 218.21 125.765 216.384 115.717C214.238 103.918 215.872 91.7384 218.467 80.2441C218.659 79.559 217.73 79.2545 217.57 79.9396Z" fill="black"/>
<path d="M232.499 141.864C247.267 140.075 259.601 127.401 263.061 110.198C263.189 109.475 262.292 109.17 262.132 109.893C258.768 126.526 246.883 138.971 232.499 140.722C231.89 140.798 231.858 141.94 232.499 141.864Z" fill="black"/>
<path d="M262.228 110.502C268.827 115.298 275.267 105.25 275.683 98.2086C275.907 94.4787 274.466 91.6241 271.358 90.5584C268.475 89.5689 265.335 90.5965 263.285 93.1846C262.869 93.7175 263.541 94.5167 263.958 93.9839C265.656 91.8144 268.219 90.8629 270.685 91.51C271.967 91.8525 273.376 92.6898 274.113 94.06C274.914 95.5444 274.818 97.5996 274.626 99.2363C273.857 105.136 268.347 113.585 262.708 109.475C262.196 109.132 261.683 110.122 262.228 110.502Z" fill="black"/>
<path d="M262.164 110.426C260.914 120.969 261.363 131.664 263.477 142.016C263.637 142.74 264.566 142.435 264.406 141.712C262.324 131.55 261.875 121.045 263.093 110.731C263.157 110.007 262.228 109.703 262.164 110.426Z" fill="black"/>
<path d="M245.601 136.498C246.594 142.663 248.132 148.639 250.246 154.424C250.503 155.109 251.336 154.5 251.079 153.853C248.997 148.182 247.491 142.283 246.53 136.193C246.402 135.47 245.505 135.774 245.601 136.498Z" fill="black"/>
<path d="M250.919 154.576C257.102 153.396 262.324 148.334 264.663 141.445C264.887 140.76 263.958 140.456 263.734 141.141C261.523 147.687 256.493 152.369 250.663 153.473C250.054 153.587 250.31 154.691 250.919 154.576Z" fill="black"/>
<path d="M246.37 137.83C247.684 137.906 248.581 136.84 249.574 135.927C250.887 134.709 252.137 133.415 253.29 132.044C255.436 129.494 257.166 126.564 258.287 123.214C258.512 122.529 257.583 122.225 257.358 122.91C256.365 125.879 254.828 128.505 252.97 130.788C252.137 131.854 251.24 132.806 250.311 133.757C249.285 134.785 247.812 136.764 246.37 136.688C245.761 136.65 245.761 137.792 246.37 137.83Z" fill="black"/>
<path d="M246.434 137.221C249.157 135.128 251.688 132.73 254.059 130.104C254.507 129.609 253.834 128.771 253.386 129.304C251.079 131.892 248.613 134.214 245.954 136.269C245.409 136.612 245.922 137.602 246.434 137.221Z" fill="black"/>
<path d="M227.597 82.1471C225.803 91.8525 224.778 101.71 224.554 111.644C224.554 112.215 225.194 112.405 225.451 111.949C226.7 109.589 227.949 107.191 229.199 104.831C229.519 104.222 228.686 103.613 228.366 104.26C227.116 106.62 225.867 109.018 224.618 111.378C224.906 111.492 225.226 111.568 225.515 111.682C225.739 101.862 226.764 92.0809 228.526 82.4896C228.654 81.7284 227.725 81.4239 227.597 82.1471Z" fill="black"/>
<path d="M228.878 125.955C228.109 124.242 227.597 122.415 227.469 120.474C227.373 119.104 227.629 113.547 229.807 115.755C230.961 116.934 230.801 119.523 230.833 121.235C230.833 122.035 230.833 122.872 230.768 123.671C230.736 124.242 230.672 124.813 230.576 125.346C229.743 126.031 229.103 125.993 228.686 125.27C228.27 124.737 227.565 125.536 228.013 126.069C229.391 127.744 231.185 127.82 231.569 125.194C231.858 123.329 231.858 121.349 231.73 119.485C231.633 118 231.633 115.869 230.704 114.727C229.327 113.052 227.373 114.613 226.828 116.402C225.835 119.599 226.796 123.633 228.077 126.526C228.334 127.173 229.167 126.602 228.878 125.955Z" fill="black"/>
<path d="M235.51 91.7003C236.471 97.0668 242.398 97.4855 244.16 92.5376C244.384 91.8525 243.455 91.548 243.231 92.2331C241.789 96.2675 237.176 95.5063 236.439 91.3958C236.311 90.7107 235.382 90.9771 235.51 91.7003Z" fill="black"/>
<path d="M233.62 78.4932C234.837 75.2581 237.977 73.6976 240.86 74.4208C243.839 75.182 246.114 77.9223 247.587 80.9291C247.908 81.5762 248.741 81.0052 248.42 80.3582C246.722 76.8947 244.031 73.8118 240.572 73.2028C237.464 72.67 234.132 74.4208 232.787 77.8843C232.531 78.6074 233.363 79.1783 233.62 78.4932Z" fill="black"/>
<path d="M214.847 79.7493C215.712 77.6179 217.217 75.2962 219.428 75.3343C221.542 75.3723 223.08 77.5798 224.137 79.5209C224.457 80.1299 225.29 79.559 224.97 78.95C223.753 76.6283 221.927 74.2305 219.428 74.1924C216.865 74.1544 215.071 76.6664 214.046 79.1784C213.757 79.8254 214.59 80.3963 214.847 79.7493Z" fill="black"/>
<path d="M220.517 96.9907C221.083 96.9907 221.542 94.4858 221.542 91.3958C221.542 88.3058 221.083 85.8009 220.517 85.8009C219.951 85.8009 219.492 88.3058 219.492 91.3958C219.492 94.4858 219.951 96.9907 220.517 96.9907Z" fill="black"/>
<path d="M223.464 157.203C223.368 158.611 223.24 160.552 223.176 162.798C222.888 170.486 223.144 176.309 223.24 177.87C223.496 182.932 224.073 189.554 225.419 197.242C224.137 198.993 222.215 201.581 219.748 204.626C215.071 210.449 212.668 213.418 208.824 216.501C204.531 219.926 201.552 220.992 199.95 221.487C197.932 222.058 196.01 222.591 193.671 221.982C189.859 220.954 187.584 217.605 186.751 216.311C184.637 213.114 184.156 209.993 183.291 203.903C182.651 199.45 182.522 196.062 182.33 189.516C182.234 186.395 182.106 182.589 182.17 177.489C182.234 171.742 182.49 164.929 183.195 157.317C183.516 153.891 183.964 149.667 184.669 144.871C184.124 143.958 183.548 143.044 182.939 142.093C182.298 141.103 181.689 140.151 181.049 139.2C179.415 140.837 177.813 142.511 176.179 144.148C175.763 144.338 175.026 144.643 174.129 144.528C172.431 144.338 171.438 142.93 171.086 142.473C169.516 140.342 169.74 137.639 169.804 137.107C172.015 134.252 174.225 131.436 176.468 128.581C176.5 126.944 176.692 124.813 177.236 122.453C177.653 120.703 178.165 119.256 178.646 118.038C179.062 117.049 179.639 115.945 180.376 114.841C181.689 112.786 183.099 111.34 184.252 110.35C183.323 110.845 183.099 110.845 183.035 110.769C182.875 110.464 184.38 108.219 186.495 107.99C187.68 107.838 188.609 108.371 189.25 108.713C190.243 109.284 190.916 110.008 191.332 110.54C193.319 108.523 195.305 106.506 197.291 104.527C197.996 105.022 198.701 105.592 199.405 106.163C201.039 107.496 202.513 108.828 203.826 110.122C203.346 110.845 202.737 111.644 201.968 112.443C200.687 113.776 199.405 114.575 198.412 115.108C199.021 115.336 200.11 115.869 200.655 117.125C201.199 118.343 200.975 119.675 200.655 121.35C200.431 122.491 200.142 123.405 199.918 124.014C200.046 125.612 200.11 127.782 199.726 130.218C199.117 134.214 197.707 137.183 196.746 138.895C196.714 140.38 196.682 142.702 196.746 145.556C197.003 157.317 198.444 164.206 199.373 172.884C199.918 177.831 200.463 185.177 200.302 194.426C201.039 193.855 202.096 192.942 203.282 191.762C206.293 188.755 208.215 185.748 210.746 181.333C213.245 177.032 214.879 173.835 217.089 169.572C218.467 166.794 220.677 162.569 223.464 157.203Z" fill="white"/>
<path opacity="0.24" d="M194.344 122.453C193.671 124.204 192.998 125.993 192.325 127.82C190.371 133.301 188.769 138.553 187.456 143.577C187.168 151.493 187.007 158.116 186.879 162.912C186.719 170.181 187.103 178.859 187.808 196.215C188.097 203.37 188.353 207.709 191.172 210.868C194.119 214.141 198.22 214.217 200.527 214.217C212.828 214.179 222.023 201.733 224.554 198.118C221.126 205.045 217.217 209.574 214.558 212.238C211.547 215.245 207.671 219.013 201.648 220.878C196.554 222.476 194.248 222.134 193.639 221.982C189.25 220.726 186.815 216.387 185.95 214.902C183.868 211.211 183.195 207.366 182.811 199.107C182.426 190.62 182.843 188.374 182.971 176.69C183.067 165.538 182.715 162.379 183.419 154.653C183.836 150.123 184.348 146.393 184.765 143.881C183.515 142.321 182.266 140.76 181.017 139.238C179.959 140.342 178.87 141.407 177.781 142.511C177.076 143.234 176.339 143.957 175.635 144.643C174.994 144.719 174.065 144.681 173.072 144.186C170.509 142.892 168.907 139.124 169.708 137.83C170.221 136.954 171.566 137.639 173.424 137.639C176.628 137.677 178.774 135.736 183.035 132.083C186.046 129.456 189.506 126.526 194.344 122.453Z" fill="#9B9797"/>
<path d="M223.048 156.898C215.648 169.039 210.169 182.97 200.815 193.322C200.366 193.817 201.039 194.616 201.488 194.121C210.906 183.693 216.416 169.686 223.881 157.469C224.265 156.898 223.432 156.327 223.048 156.898Z" fill="black"/>
<path d="M195.497 222.857C208.183 221.868 217.281 209.231 224.906 198.498C225.29 197.928 224.618 197.128 224.233 197.699C216.833 208.204 207.863 220.764 195.529 221.753C194.888 221.753 194.888 222.895 195.497 222.857Z" fill="black"/>
<path d="M189.474 115.641C189.538 118.647 191.204 121.235 193.639 122.073C194.248 122.263 194.504 121.159 193.895 120.969C191.877 120.284 190.499 118.114 190.435 115.641C190.403 114.917 189.442 114.917 189.474 115.641Z" fill="black"/>
<path d="M190.467 115.298C190.788 111.987 195.753 114.384 197.099 115.222C198.412 116.021 199.726 116.82 200.014 118.723C200.238 120.17 199.854 121.692 199.534 123.1C199.373 123.824 200.302 124.128 200.463 123.405C200.911 121.502 201.392 119.332 200.719 117.467C200.078 115.564 198.316 114.689 196.875 113.852C195.401 113.014 193.799 112.405 192.133 112.634C191.46 112.748 190.595 112.938 190.051 113.471C189.474 114.004 189.602 114.384 189.506 115.336C189.442 116.021 190.403 116.021 190.467 115.298Z" fill="black"/>
<path d="M199.213 122.872C199.117 125.765 199.662 128.581 199.085 131.474C198.54 134.138 197.451 136.612 196.362 139.01C196.074 139.657 196.907 140.228 197.195 139.581C198.316 137.069 199.437 134.519 200.014 131.778C200.623 128.809 200.078 125.879 200.174 122.872C200.206 122.111 199.245 122.111 199.213 122.872Z" fill="black"/>
<path d="M196.362 139.048C195.625 159.106 200.463 178.745 199.694 198.803C199.662 199.526 200.623 199.526 200.655 198.803C201.424 178.745 196.586 159.106 197.323 139.048C197.355 138.324 196.394 138.324 196.362 139.048Z" fill="black"/>
<path d="M180.632 139.466C181.593 141.065 182.618 142.587 183.772 143.995C184.188 144.528 184.861 143.729 184.444 143.196C183.355 141.826 182.362 140.418 181.465 138.895C181.081 138.286 180.248 138.857 180.632 139.466Z" fill="black"/>
<path d="M184.316 143.691C182.49 156.061 181.593 168.621 181.625 181.181C181.657 187.423 181.914 193.703 182.426 199.907C182.843 205.197 183.355 210.754 185.694 215.397C187.808 219.622 191.524 222.819 195.753 222.705C196.362 222.667 196.362 221.525 195.753 221.563C189.827 221.753 186.014 215.473 184.637 209.307C183.099 202.533 182.971 195.149 182.747 188.184C182.266 173.416 183.131 158.573 185.277 144.034C185.342 143.272 184.412 142.968 184.316 143.691Z" fill="black"/>
<path d="M178.262 126.602C175.25 129.609 172.335 132.768 169.58 136.079C169.131 136.612 169.836 137.411 170.253 136.878C173.04 133.567 175.923 130.408 178.934 127.401C179.415 126.944 178.742 126.145 178.262 126.602Z" fill="black"/>
<path d="M169.291 137.107C168.811 141.522 171.63 145.252 175.378 145.213C175.987 145.213 175.987 144.072 175.378 144.072C172.143 144.11 169.836 140.875 170.253 137.107C170.349 136.383 169.388 136.383 169.291 137.107Z" fill="black"/>
<path d="M170.189 136.84C173.552 136.954 175.891 140.532 175.186 144.414C175.058 145.137 175.987 145.442 176.115 144.719C176.98 140.037 174.225 135.851 170.189 135.698C169.58 135.698 169.58 136.84 170.189 136.84Z" fill="black"/>
<path d="M176.5 144.528C180.152 140.57 183.868 136.65 187.424 132.577C189.058 130.712 190.628 128.809 192.101 126.754C192.902 125.65 194.92 123.481 194.952 121.959C194.952 121.768 194.856 121.54 194.728 121.464C194.664 121.426 194.6 121.388 194.568 121.388C194.376 121.273 194.119 121.273 193.991 121.464C193.959 121.502 193.927 121.54 193.895 121.616C193.511 122.187 194.184 122.986 194.568 122.415C194.6 122.377 194.632 122.339 194.664 122.263C194.472 122.301 194.28 122.339 194.087 122.339C194.023 121.997 193.927 121.997 193.799 122.377C193.639 122.644 193.479 122.91 193.287 123.176C192.902 123.747 192.55 124.318 192.133 124.889C191.493 125.841 190.788 126.754 190.115 127.668C188.705 129.495 187.232 131.207 185.726 132.882C182.458 136.536 179.127 140.075 175.827 143.691C175.346 144.224 176.051 145.023 176.5 144.528Z" fill="black"/>
<path d="M176.916 128.733C177.14 126.906 177.365 125.079 177.589 123.253C177.749 121.882 177.877 120.36 178.518 119.142C179.991 116.326 182.074 118.343 183.195 120.246C183.676 121.045 184.124 121.92 184.605 122.72C184.861 123.176 186.11 124.813 185.95 125.384C186.11 125.232 186.271 125.117 186.399 124.965C186.335 124.965 186.303 124.965 186.238 124.965C185.63 124.927 185.63 126.069 186.238 126.107C186.303 126.107 186.335 126.107 186.399 126.107C186.623 126.107 186.815 125.917 186.847 125.688C187.071 124.737 186.527 124.166 186.11 123.405C185.309 121.997 184.541 120.55 183.708 119.18C182.843 117.772 181.721 116.402 180.12 116.592C178.582 116.782 177.653 118.19 177.172 119.827C176.371 122.529 176.307 125.612 175.955 128.429C175.891 129.152 176.82 129.456 176.916 128.733Z" fill="black"/>
<path d="M178.422 124.433C179.287 126.45 180.728 128.505 182.779 128.657C184.477 128.81 186.078 127.668 186.527 125.689C186.687 124.965 185.758 124.661 185.598 125.384C185.181 127.211 183.483 127.896 182.074 127.325C180.728 126.754 179.863 125.346 179.255 123.9C178.966 123.215 178.133 123.785 178.422 124.433Z" fill="black"/>
<path d="M179.607 117.011C179.767 115.146 181.561 114.651 182.779 115.146C184.06 115.641 185.053 117.011 185.95 118.114C186.655 118.99 188.033 120.208 188.225 121.426C188.481 123.062 186.751 124.166 185.598 124.585C185.021 124.775 185.245 125.879 185.854 125.689C187.264 125.194 189.314 123.709 189.538 121.73C189.634 120.931 189.218 120.512 188.769 119.941C187.872 118.8 187.007 117.696 186.078 116.592C184.829 115.07 183.227 113.433 181.305 113.814C179.863 114.08 178.806 115.222 178.646 116.973C178.582 117.734 179.543 117.734 179.607 117.011Z" fill="black"/>
<path d="M181.337 114.194C181.786 113.585 182.01 112.786 182.426 112.177C183.451 110.655 185.053 112.063 186.11 112.976C188.161 114.689 190.339 117.81 188.481 120.779C188.129 121.388 188.962 121.959 189.314 121.35C191.3 118.152 189.346 114.461 187.071 112.405C186.014 111.454 184.412 109.741 182.971 110.236C181.689 110.655 181.465 112.405 180.664 113.433C180.248 113.928 180.921 114.727 181.337 114.194Z" fill="black"/>
<path d="M184.573 110.731C185.694 109.094 187.168 107.381 188.898 109.094C190.051 110.198 190.788 111.758 191.204 113.395C191.396 114.08 192.293 113.814 192.133 113.09C191.589 110.883 190.339 108.333 188.481 107.419C186.591 106.506 185.021 108.295 183.9 109.931C183.516 110.464 184.188 111.302 184.573 110.731Z" fill="black"/>
<path d="M191.653 110.883C193.639 108.866 195.625 106.848 197.611 104.869C198.092 104.374 197.387 103.575 196.939 104.07C194.952 106.087 192.966 108.104 190.98 110.084C190.499 110.578 191.204 111.378 191.653 110.883Z" fill="black"/>
<path d="M198.733 115.755C200.623 114.118 202.449 112.367 204.147 110.464C204.595 109.969 203.922 109.17 203.474 109.665C201.808 111.492 200.078 113.205 198.252 114.765C197.74 115.184 198.22 116.173 198.733 115.755Z" fill="black"/>
<path d="M213.117 112.9C223.803 112.9 232.466 102.608 232.466 89.9115C232.466 77.2153 223.803 66.9229 213.117 66.9229C202.43 66.9229 193.767 77.2153 193.767 89.9115C193.767 102.608 202.43 112.9 213.117 112.9Z" stroke="black" stroke-width="3" stroke-miterlimit="10"/>
<path d="M201.392 92.728C208.504 87.3234 215.776 82.2232 223.208 77.4276C223.753 77.0851 223.272 76.0955 222.727 76.438C215.295 81.1956 208.023 86.2957 200.911 91.7384C200.398 92.1571 200.879 93.1466 201.392 92.728Z" fill="black"/>
<path d="M202.192 102.7C208.055 97.5997 213.982 92.6899 220.036 87.8943C220.549 87.4756 220.069 86.486 219.556 86.9047C213.533 91.7003 207.574 96.6482 201.712 101.71C201.199 102.129 201.68 103.119 202.192 102.7Z" fill="black"/>
</g>
<defs>
<clipPath id="clip0_2_1323">
<rect width="389" height="419" fill="white"/>
</clipPath>
</defs>
</svg>
